HIERARCHY
ROOT Hips
{
  OFFSET 5.80788e-005 67.184 3.4734
  CHANNELS 6 Xposition Yposition Zposition Zrotation Xrotation Yrotation
  JOINT Chest
  {
    OFFSET 0 8.7983 -4.7612
    CHANNELS 6 Xposition Yposition Zposition Zrotation Xrotation Yrotation
    JOINT Chest2
    {
      OFFSET 0 8.0291 0.4195
      CHANNELS 6 Xposition Yposition Zposition Zrotation Xrotation Yrotation
      JOINT Chest3
      {
        OFFSET 0 9.9351 -2.2114
        CHANNELS 6 Xposition Yposition Zposition Zrotation Xrotation Yrotation
        JOINT Neck
        {
          OFFSET 0 22.3885 -0.4656
          CHANNELS 6 Xposition Yposition Zposition Zrotation Xrotation Yrotation
          JOINT Head
          {
            OFFSET -0.0001 12.643 3.4389
            CHANNELS 6 Xposition Yposition Zposition Zrotation Xrotation Yrotation
            End Site
            {
              OFFSET 0.0001 17.6655 0.5274
            }
          }
        }
        JOINT LeftCollar
        {
          OFFSET 2.2603 21.606 7.4023
          CHANNELS 6 Xposition Yposition Zposition Zrotation Xrotation Yrotation
          JOINT LeftShoulder
          {
            OFFSET 13.5163 -1.1332 -5.0146
            CHANNELS 6 Xposition Yposition Zposition Zrotation Xrotation Yrotation
            JOINT LeftElbow
            {
              OFFSET -0.0995 -28.05 -0.2431
              CHANNELS 6 Xposition Yposition Zposition Zrotation Xrotation Yrotation
              JOINT LeftWrist
              {
                OFFSET 0.0679 -23.3996 -0.1402
                CHANNELS 6 Xposition Yposition Zposition Zrotation Xrotation Yrotation
                JOINT LeftFinger1
                {
                  OFFSET 0.7932 -9.069 2.5189
                  CHANNELS 6 Xposition Yposition Zposition Zrotation Xrotation Yrotation
                  JOINT LeftFinger11
                  {
                    OFFSET -0.8272 -3.3923 0.5977
                    CHANNELS 6 Xposition Yposition Zposition Zrotation Xrotation Yrotation
                    JOINT LeftFinger12
                    {
                      OFFSET -0.5649 -2.3158 0.4082
                      CHANNELS 6 Xposition Yposition Zposition Zrotation Xrotation Yrotation
                      End Site
                      {
                        OFFSET -0.4919 -1.6479 0.2673
                      }
                    }
                  }
                }
                JOINT LeftFinger2
                {
                  OFFSET 0.9159 -9.2044 0.2193
                  CHANNELS 6 Xposition Yposition Zposition Zrotation Xrotation Yrotation
                  JOINT LeftFinger21
                  {
                    OFFSET 0.0117 -4.1944 -0.0248
                    CHANNELS 6 Xposition Yposition Zposition Zrotation Xrotation Yrotation
                    JOINT LeftFinger22
                    {
                      OFFSET 0.0071 -2.3249 -0.0142
                      CHANNELS 6 Xposition Yposition Zposition Zrotation Xrotation Yrotation
                      End Site
                      {
                        OFFSET -0.1475 -2.0882 0.0028
                      }
                    }
                  }
                }
                JOINT LeftFinger3
                {
                  OFFSET 0.6113 -8.7231 -2.0637
                  CHANNELS 6 Xposition Yposition Zposition Zrotation Xrotation Yrotation
                  JOINT LeftFinger31
                  {
                    OFFSET -0.1927 -3.8059 -0.2383
                    CHANNELS 6 Xposition Yposition Zposition Zrotation Xrotation Yrotation
                    JOINT LeftFinger32
                    {
                      OFFSET -0.1091 -2.1688 -0.1362
                      CHANNELS 6 Xposition Yposition Zposition Zrotation Xrotation Yrotation
                      End Site
                      {
                        OFFSET -0.2358 -1.9176 -0.0906
                      }
                    }
                  }
                }
                JOINT LeftFinger4
                {
                  OFFSET -0.6151 -8.0947 -3.5641
                  CHANNELS 6 Xposition Yposition Zposition Zrotation Xrotation Yrotation
                  JOINT LeftFinger41
                  {
                    OFFSET -0.4882 -2.341 -0.6462
                    CHANNELS 6 Xposition Yposition Zposition Zrotation Xrotation Yrotation
                    JOINT LeftFinger42
                    {
                      OFFSET -0.3575 -1.7167 -0.4742
                      CHANNELS 6 Xposition Yposition Zposition Zrotation Xrotation Yrotation
                      End Site
                      {
                        OFFSET -0.4187 -1.5237 -0.3496
                      }
                    }
                  }
                }
                JOINT LeftFinger0
                {
                  OFFSET -1.42 -1.8761 1.4223
                  CHANNELS 6 Xposition Yposition Zposition Zrotation Xrotation Yrotation
                  JOINT LeftFinger01
                  {
                    OFFSET -1.1471 -3.4929 2.6334
                    CHANNELS 6 Xposition Yposition Zposition Zrotation Xrotation Yrotation
                    JOINT LeftFinger02
                    {
                      OFFSET -0.823 -2.3 1.6571
                      CHANNELS 6 Xposition Yposition Zposition Zrotation Xrotation Yrotation
                      End Site
                      {
                        OFFSET -0.5822 -1.6914 1.1582
                      }
                    }
                  }
                }
              }
            }
          }
        }
        JOINT RightCollar
        {
          OFFSET -2.2603 21.606 7.4023
          CHANNELS 6 Xposition Yposition Zposition Zrotation Xrotation Yrotation
          JOINT RightShoulder
          {
            OFFSET -13.5187 -1.1334 -5.0155
            CHANNELS 6 Xposition Yposition Zposition Zrotation Xrotation Yrotation
            JOINT RightElbow
            {
              OFFSET 0.0994 -28.0499 -0.2431
              CHANNELS 6 Xposition Yposition Zposition Zrotation Xrotation Yrotation
              JOINT RightWrist
              {
                OFFSET -0.0679 -23.3996 -0.1402
                CHANNELS 6 Xposition Yposition Zposition Zrotation Xrotation Yrotation
                JOINT RightFinger1
                {
                  OFFSET -0.7932 -9.0691 2.5189
                  CHANNELS 6 Xposition Yposition Zposition Zrotation Xrotation Yrotation
                  JOINT RightFinger11
                  {
                    OFFSET 0.8272 -3.3923 0.5977
                    CHANNELS 6 Xposition Yposition Zposition Zrotation Xrotation Yrotation
                    JOINT RightFinger12
                    {
                      OFFSET 0.565 -2.3158 0.4082
                      CHANNELS 6 Xposition Yposition Zposition Zrotation Xrotation Yrotation
                      End Site
                      {
                        OFFSET 0.4919 -1.6479 0.2673
                      }
                    }
                  }
                }
                JOINT RightFinger2
                {
                  OFFSET -0.916 -9.2044 0.2193
                  CHANNELS 6 Xposition Yposition Zposition Zrotation Xrotation Yrotation
                  JOINT RightFinger21
                  {
                    OFFSET -0.0117 -4.1944 -0.0248
                    CHANNELS 6 Xposition Yposition Zposition Zrotation Xrotation Yrotation
                    JOINT RightFinger22
                    {
                      OFFSET -0.0071 -2.3249 -0.0142
                      CHANNELS 6 Xposition Yposition Zposition Zrotation Xrotation Yrotation
                      End Site
                      {
                        OFFSET 0.1475 -2.0882 0.0028
                      }
                    }
                  }
                }
                JOINT RightFinger3
                {
                  OFFSET -0.6113 -8.7231 -2.0637
                  CHANNELS 6 Xposition Yposition Zposition Zrotation Xrotation Yrotation
                  JOINT RightFinger31
                  {
                    OFFSET 0.1927 -3.8059 -0.2383
                    CHANNELS 6 Xposition Yposition Zposition Zrotation Xrotation Yrotation
                    JOINT RightFinger32
                    {
                      OFFSET 0.1091 -2.1688 -0.1362
                      CHANNELS 6 Xposition Yposition Zposition Zrotation Xrotation Yrotation
                      End Site
                      {
                        OFFSET 0.2358 -1.9176 -0.0906
                      }
                    }
                  }
                }
                JOINT RightFinger4
                {
                  OFFSET 0.6151 -8.0947 -3.564
                  CHANNELS 6 Xposition Yposition Zposition Zrotation Xrotation Yrotation
                  JOINT RightFinger41
                  {
                    OFFSET 0.4882 -2.341 -0.6462
                    CHANNELS 6 Xposition Yposition Zposition Zrotation Xrotation Yrotation
                    JOINT RightFinger42
                    {
                      OFFSET 0.3574 -1.7166 -0.4742
                      CHANNELS 6 Xposition Yposition Zposition Zrotation Xrotation Yrotation
                      End Site
                      {
                        OFFSET 0.4187 -1.5237 -0.3496
                      }
                    }
                  }
                }
                JOINT RightFinger0
                {
                  OFFSET 1.4199 -1.8761 1.4221
                  CHANNELS 6 Xposition Yposition Zposition Zrotation Xrotation Yrotation
                  JOINT RightFinger01
                  {
                    OFFSET 1.1472 -3.4929 2.6336
                    CHANNELS 6 Xposition Yposition Zposition Zrotation Xrotation Yrotation
                    JOINT RightFinger02
                    {
                      OFFSET 0.8229 -2.3 1.6571
                      CHANNELS 6 Xposition Yposition Zposition Zrotation Xrotation Yrotation
                      End Site
                      {
                        OFFSET 0.5822 -1.6914 1.1582
                      }
                    }
                  }
                }
              }
            }
          }
        }
      }
    }
  }
  JOINT RightHip
  {
    OFFSET -9.412 3.9771 -0.7758
    CHANNELS 6 Xposition Yposition Zposition Zrotation Xrotation Yrotation
    JOINT RightKnee
    {
      OFFSET -0.7531 -40.938 0
      CHANNELS 6 Xposition Yposition Zposition Zrotation Xrotation Yrotation
      JOINT RightAnkle
      {
        OFFSET 0 -40.1986 0
        CHANNELS 6 Xposition Yposition Zposition Zrotation Xrotation Yrotation
        JOINT RightToe
        {
          OFFSET 0 -4.4182 9.239
          CHANNELS 6 Xposition Yposition Zposition Zrotation Xrotation Yrotation
          End Site
          {
            OFFSET 0 0 6.1981
          }
        }
      }
    }
  }
  JOINT LeftHip
  {
    OFFSET 9.4119 3.9773 -0.7758
    CHANNELS 6 Xposition Yposition Zposition Zrotation Xrotation Yrotation
    JOINT LeftKnee
    {
      OFFSET 0.7532 -40.9383 0
      CHANNELS 6 Xposition Yposition Zposition Zrotation Xrotation Yrotation
      JOINT LeftAnkle
      {
        OFFSET 0 -40.1986 0
        CHANNELS 6 Xposition Yposition Zposition Zrotation Xrotation Yrotation
        JOINT LeftToe
        {
          OFFSET 0 -4.4182 9.239
          CHANNELS 6 Xposition Yposition Zposition Zrotation Xrotation Yrotation
          End Site
          {
            OFFSET 0 0 6.1981
          }
        }
      }
    }
  }
}
MOTION
Frames:	4
Frame Time:	0.0333333
40.0666 9.64888 23.9095 179.997 58.9977 -1.38199e-007 -7.10543e-015 8.7983 -4.7612 0.545152 7.98668 -0.572833 7.10543e-015 8.0291 0.4195 1.18944 15.9671 -1.24164 0 9.9351 -2.2114 1.18945 15.9671 -1.24164 0 22.3885 -0.4656 -3.5073e-006 13.9934 2.87914e-006 -0.0001 12.643 3.4389 -2.80571e-007 0.691535 1.13196e-007 2.2603 21.606 7.4023 -48.3443 -3.40033 -17.5612 13.5163 -1.1332 -5.0146 100.726 22.0713 -47.9062 -0.0995 -28.05 -0.2431 -0.893744 -6.76894 -36.4821 0.0679 -23.3996 -0.1402 2.94506 -5.34455 -7.15322 0.7932 -9.069 2.5189 -3.97569e-016 9.54166e-015 3.97569e-016 -0.8272 -3.3923 0.5977 0 0 -0 -0.5649 -2.3158 0.4082 -3.97569e-016 -3.18055e-015 3.97569e-016 0.9159 -9.2044 0.2193 -3.97569e-016 9.54166e-015 3.97569e-016 0.0117 -4.1944 -0.0248 -0.0128188 0.00232652 8.58799e-005 0.0071 -2.3249 -0.0142 3.97569e-016 -3.18055e-015 -0 0.6113 -8.7231 -2.0637 -3.97569e-016 9.54166e-015 3.97569e-016 -0.1927 -3.8059 -0.2383 -0.0160437 0.00299925 0.000858435 -0.1091 -2.1688 -0.1362 7.95139e-016 -3.18055e-015 -0 -0.6151 -8.0947 -3.5641 -3.97569e-016 9.54166e-015 3.97569e-016 -0.4882 -2.341 -0.6462 -0.012583 0.00312488 0.00282176 -0.3575 -1.7167 -0.4742 -3.97569e-016 3.18055e-015 -3.97569e-016 -1.42 -1.8761 1.4223 -3.97569e-016 9.54166e-015 3.97569e-016 -1.1471 -3.4929 2.6334 0 0 -0 -0.823 -2.3 1.6571 -3.97569e-016 -3.18055e-015 3.97569e-016 -2.2603 21.606 7.4023 45.512 -6.51853 -6.66638 -13.5187 -1.1334 -5.0155 -75.0621 -59.0398 -40.9101 0.0994 -28.0499 -0.2431 52.4367 8.43738 90.8377 -0.0679 -23.3996 -0.1402 -16.4208 -11.6847 -29.6408 -0.7932 -9.0691 2.5189 2.7441e-006 -4.17887e-006 8.11627e-007 0.8272 -3.3923 0.5977 -1.16206e-007 -4.79104e-006 1.50618e-006 0.565 -2.3158 0.4082 -1.27222e-014 -2.78299e-015 6.36111e-015 -0.916 -9.2044 0.2193 2.7441e-006 -4.17887e-006 8.11627e-007 -0.0117 -4.1944 -0.0248 0.0129299 0.00232104 -8.59578e-005 -0.0071 -2.3249 -0.0142 -1.19271e-015 2.78299e-015 -6.36111e-015 -0.6113 -8.7231 -2.0637 2.7441e-006 -4.17887e-006 8.11627e-007 0.1927 -3.8059 -0.2383 0.0163547 0.00303941 -0.000883126 0.1091 -2.1688 -0.1362 -1.19271e-014 1.19271e-015 -3.18055e-015 0.6151 -8.0947 -3.564 2.7441e-006 -4.17887e-006 8.11627e-007 0.4882 -2.341 -0.6462 0.0145461 0.0036768 -0.0032621 0.3574 -1.7166 -0.4742 -3.75182e-031 -6.75868e-015 -3.18055e-015 1.4199 -1.8761 1.4221 2.7441e-006 -4.17887e-006 8.11627e-007 1.1472 -3.4929 2.6336 -1.16206e-007 -4.79104e-006 1.50618e-006 0.8229 -2.3 1.6571 -1.27222e-014 -2.78299e-015 6.36111e-015 -9.412 3.9771 -0.7758 -42.3889 -48.3448 -72.7192 -0.7531 -40.938 0 -121.907 41.286 138.982 -7.10543e-015 -40.1986 -3.55271e-015 -17.8114 -5.03004 -33.5129 0 -4.4182 9.239 -3.18055e-015 0 -7.95139e-016 9.4119 3.9773 -0.7758 59.7861 -50.816 86.9705 0.7532 -40.9383 -3.55271e-015 132.396 39.9355 -127.331 0 -40.1986 7.10543e-015 23.3981 -12.2586 11.2618 0 -4.4182 9.239 1.54759e-006 3.18055e-015 2.46467e-007 
40.0674 9.64891 23.979 179.997 58.9977 4.57696e-007 0 8.7983 -4.7612 0.545714 7.93669 -0.571464 0 8.0291 0.4195 1.18962 15.8671 -1.23819 7.10543e-015 9.9351 -2.2114 1.18963 15.8671 -1.2382 0 22.3885 -0.4656 -4.765e-006 13.9934 3.37646e-006 -0.0001 12.643 3.4389 5.6006e-007 0.662212 -2.2883e-007 2.2603 21.606 7.4023 -48.1293 -3.4318 -17.2411 13.5163 -1.1332 -5.0146 100.262 21.7544 -47.7513 -0.0995 -28.05 -0.2431 -0.834475 -6.54415 -36.4747 0.0679 -23.3996 -0.1402 2.81727 -5.32014 -7.37296 0.7932 -9.069 2.5189 -3.97569e-016 2.22639e-014 1.19271e-015 -0.8272 -3.3923 0.5977 3.97569e-016 1.59028e-014 3.97569e-016 -0.5649 -2.3158 0.4082 3.97569e-016 1.59028e-014 3.97569e-016 0.9159 -9.2044 0.2193 -3.97569e-016 2.22639e-014 1.19271e-015 0.0117 -4.1944 -0.0248 -0.0128118 0.00233277 7.56224e-005 0.0071 -2.3249 -0.0142 -7.95139e-016 -6.36111e-015 -0 0.6113 -8.7231 -2.0637 -3.97569e-016 2.22639e-014 1.19271e-015 -0.1927 -3.8059 -0.2383 -0.016048 0.00298685 0.000850748 -0.1091 -2.1688 -0.1362 -7.95139e-016 -6.36111e-015 7.95139e-016 -0.6151 -8.0947 -3.5641 -3.97569e-016 2.22639e-014 1.19271e-015 -0.4882 -2.341 -0.6462 -0.0125914 0.00312459 0.0028209 -0.3575 -1.7167 -0.4742 -7.95139e-016 -3.18055e-015 -3.97569e-016 -1.42 -1.8761 1.4223 -3.97569e-016 2.22639e-014 1.19271e-015 -1.1471 -3.4929 2.6334 3.97569e-016 1.59028e-014 3.97569e-016 -0.823 -2.3 1.6571 3.97569e-016 1.59028e-014 3.97569e-016 -2.2603 21.606 7.4023 45.5882 -6.34217 -6.67221 -13.5187 -1.1334 -5.0155 -74.8654 -58.7972 -40.6997 0.0994 -28.0499 -0.2431 52.1051 8.40125 90.4395 -0.0679 -23.3996 -0.1402 -16.1933 -11.6261 -29.6167 -0.7932 -9.0691 2.5189 -9.2822e-006 2.02579e-007 -3.08738e-006 0.8272 -3.3923 0.5977 1.27849e-007 -1.02583e-006 -1.51268e-006 0.565 -2.3158 0.4082 3.18055e-015 -2.38542e-015 -0 -0.916 -9.2044 0.2193 -9.2822e-006 2.02579e-007 -3.08738e-006 -0.0117 -4.1944 -0.0248 0.0129801 0.0023218 -8.05333e-005 -0.0071 -2.3249 -0.0142 4.77083e-015 -3.97569e-015 -6.36111e-015 -0.6113 -8.7231 -2.0637 -9.2822e-006 2.02579e-007 -3.08738e-006 0.1927 -3.8059 -0.2383 0.0163539 0.00303459 -0.000870584 0.1091 -2.1688 -0.1362 -2.78299e-015 -3.18055e-015 -3.18055e-015 0.6151 -8.0947 -3.564 -9.2822e-006 2.02579e-007 -3.08738e-006 0.4882 -2.341 -0.6462 0.0145501 0.00366908 -0.00325648 0.3574 -1.7166 -0.4742 1.59028e-015 -3.18055e-015 -0 1.4199 -1.8761 1.4221 -9.2822e-006 2.02579e-007 -3.08738e-006 1.1472 -3.4929 2.6336 1.27849e-007 -1.02583e-006 -1.51268e-006 0.8229 -2.3 1.6571 3.18055e-015 -2.38542e-015 -0 -9.412 3.9771 -0.7758 -42.3948 -48.3409 -72.7243 -0.7531 -40.938 7.10543e-015 -121.904 41.2843 138.985 7.10543e-015 -40.1986 0 -17.8121 -5.0302 -33.5133 -7.10543e-015 -4.4182 9.239 1.23589e-030 -1.27222e-014 5.56597e-015 9.4119 3.9773 -0.7758 59.5561 -50.7601 86.7873 0.7532 -40.9383 0 132.285 40.123 -127.157 0 -40.1986 0 23.3919 -12.2594 11.2625 3.55271e-015 -4.4182 9.239 2.03653e-007 -8.30035e-006 7.75436e-006 
40.0681 9.64893 24.0484 179.997 58.9977 -2.25813e-007 0 8.7983 -4.7612 0.546274 7.88667 -0.570093 0 8.0291 0.4195 1.1898 15.7671 -1.23474 7.10543e-015 9.9351 -2.2114 1.1898 15.7671 -1.23475 7.10543e-015 22.3885 -0.4656 -5.13802e-006 13.9935 3.92848e-006 -0.0001 12.643 3.4389 6.30854e-007 0.632879 5.92037e-007 2.2603 21.606 7.4023 -47.9141 -3.46207 -16.921 13.5163 -1.1332 -5.0146 99.8009 21.4365 -47.5995 -0.0995 -28.05 -0.2431 -0.775237 -6.31961 -36.4674 0.0679 -23.3996 -0.1402 2.68957 -5.29526 -7.59264 0.7932 -9.069 2.5189 -8.66907e-006 5.48899e-006 5.81084e-006 -0.8272 -3.3923 0.5977 -2.42755e-006 2.36806e-006 -2.39433e-006 -0.5649 -2.3158 0.4082 1.18476e-006 -3.41982e-006 -3.62816e-006 0.9159 -9.2044 0.2193 -8.66907e-006 5.48899e-006 5.81084e-006 0.0117 -4.1944 -0.0248 -0.0128159 0.00231772 7.83725e-005 0.0071 -2.3249 -0.0142 4.59364e-006 -3.65912e-006 4.50384e-006 0.6113 -8.7231 -2.0637 -8.66907e-006 5.48899e-006 5.81084e-006 -0.1927 -3.8059 -0.2383 -0.0160412 0.00299189 0.000849382 -0.1091 -2.1688 -0.1362 -8.82781e-032 -6.36111e-015 -7.95139e-016 -0.6151 -8.0947 -3.5641 -8.66907e-006 5.48899e-006 5.81084e-006 -0.4882 -2.341 -0.6462 -0.0125921 0.00312614 0.00282289 -0.3575 -1.7167 -0.4742 1.01872e-007 -5.83407e-006 -4.683e-006 -1.42 -1.8761 1.4223 -8.66907e-006 5.48899e-006 5.81084e-006 -1.1471 -3.4929 2.6334 -2.42755e-006 2.36806e-006 -2.39433e-006 -0.823 -2.3 1.6571 1.18476e-006 -3.41982e-006 -3.62816e-006 -2.2603 21.606 7.4023 45.6645 -6.16579 -6.67832 -13.5187 -1.1334 -5.0155 -74.6723 -58.5549 -40.4929 0.0994 -28.0499 -0.2431 51.7712 8.36521 90.0492 -0.0679 -23.3996 -0.1402 -15.966 -11.5673 -29.5931 -0.7932 -9.0691 2.5189 -4.37326e-015 -4.77083e-015 -0 0.8272 -3.3923 0.5977 -5.1684e-015 -2.38542e-015 -3.18055e-015 0.565 -2.3158 0.4082 -7.95139e-015 -1.59028e-015 -0 -0.916 -9.2044 0.2193 -4.37326e-015 -4.77083e-015 -0 -0.0117 -4.1944 -0.0248 0.012942 0.00231262 -7.77975e-005 -0.0071 -2.3249 -0.0142 7.55382e-015 -3.97569e-015 -0 -0.6113 -8.7231 -2.0637 -4.37326e-015 -4.77083e-015 -0 0.1927 -3.8059 -0.2383 0.0163199 0.00303045 -0.000871455 0.1091 -2.1688 -0.1362 2.38542e-015 -3.18055e-015 -0 0.6151 -8.0947 -3.564 -4.37326e-015 -4.77083e-015 -0 0.4882 -2.341 -0.6462 0.0146187 0.00368648 -0.00326341 0.3574 -1.7166 -0.4742 3.97569e-016 -5.56597e-015 -0 1.4199 -1.8761 1.4221 -4.37326e-015 -4.77083e-015 -0 1.1472 -3.4929 2.6336 -5.1684e-015 -2.38542e-015 -3.18055e-015 0.8229 -2.3 1.6571 -7.95139e-015 -1.59028e-015 -0 -9.412 3.9771 -0.7758 -42.3927 -48.3417 -72.7235 -0.7531 -40.938 7.10543e-015 -121.905 41.2845 138.984 -1.42109e-014 -40.1986 -3.55271e-015 -17.8128 -5.03032 -33.5138 0 -4.4182 9.239 -8.44478e-007 -5.72353e-007 1.46314e-006 9.4119 3.9773 -0.7758 59.331 -50.7017 86.6077 0.7532 -40.9383 3.55271e-015 132.172 40.3089 -126.983 3.55271e-015 -40.1986 -7.10543e-015 23.3858 -12.2602 11.263 0 -4.4182 9.239 5.9923e-006 7.50019e-006 -6.7742e-006 
40.0688 9.64896 24.1178 179.997 58.9977 9.16606e-007 0 8.7983 -4.7612 0.546833 7.83668 -0.568721 7.10543e-015 8.0291 0.4195 1.18998 15.6671 -1.23129 -7.10543e-015 9.9351 -2.2114 1.18999 15.6671 -1.23129 -7.10543e-015 22.3885 -0.4656 -6.72278e-006 13.9934 5.31194e-006 -0.0001 12.643 3.4389 -3.61425e-007 0.603595 3.14426e-007 2.2603 21.606 7.4023 -47.6987 -3.49114 -16.6008 13.5163 -1.1332 -5.0146 99.3414 21.1173 -47.4509 -0.0995 -28.05 -0.2431 -0.716083 -6.09487 -36.4604 0.0679 -23.3996 -0.1402 2.5619 -5.27021 -7.81224 0.7932 -9.069 2.5189 2.55908e-006 -2.35309e-006 2.53921e-006 -0.8272 -3.3923 0.5977 -2.42693e-006 -3.65564e-006 -2.39471e-006 -0.5649 -2.3158 0.4082 2.42693e-006 3.65564e-006 2.39471e-006 0.9159 -9.2044 0.2193 2.55908e-006 -2.35309e-006 2.53921e-006 0.0117 -4.1944 -0.0248 -0.0128251 0.00233981 9.06424e-005 0.0071 -2.3249 -0.0142 1.31865e-006 -7.03182e-006 -3.48331e-006 0.6113 -8.7231 -2.0637 2.55908e-006 -2.35309e-006 2.53921e-006 -0.1927 -3.8059 -0.2383 -0.0160554 0.00299452 0.000856205 -0.1091 -2.1688 -0.1362 8.54399e-006 5.37331e-007 -5.94927e-006 -0.6151 -8.0947 -3.5641 2.55908e-006 -2.35309e-006 2.53921e-006 -0.4882 -2.341 -0.6462 -0.0125981 0.00312337 0.00282447 -0.3575 -1.7167 -0.4742 6.0669e-006 -2.2945e-006 5.98712e-006 -1.42 -1.8761 1.4223 2.55908e-006 -2.35309e-006 2.53921e-006 -1.1471 -3.4929 2.6334 -2.42693e-006 -3.65564e-006 -2.39471e-006 -0.823 -2.3 1.6571 2.42693e-006 3.65564e-006 2.39471e-006 -2.2603 21.606 7.4023 45.7407 -5.98948 -6.68462 -13.5187 -1.1334 -5.0155 -74.4808 -58.3104 -40.2878 0.0994 -28.0499 -0.2431 51.4353 8.32753 89.6687 -0.0679 -23.3996 -0.1402 -15.7388 -11.5083 -29.5702 -0.7932 -9.0691 2.5189 1.19271e-015 7.95139e-016 -3.18055e-015 0.8272 -3.3923 0.5977 1.59028e-015 9.25232e-007 -3.18055e-015 0.565 -2.3158 0.4082 -4.54192e-007 -9.91639e-007 4.57394e-006 -0.916 -9.2044 0.2193 1.19271e-015 7.95139e-016 -3.18055e-015 -0.0117 -4.1944 -0.0248 0.0129749 0.0023207 -8.20083e-005 -0.0071 -2.3249 -0.0142 -1.19271e-015 -7.95139e-016 -3.18055e-015 -0.6113 -8.7231 -2.0637 1.19271e-015 7.95139e-016 -3.18055e-015 0.1927 -3.8059 -0.2383 0.0163823 0.00304016 -0.000873571 0.1091 -2.1688 -0.1362 -4.55081e-007 -2.15235e-006 4.57395e-006 0.6151 -8.0947 -3.564 1.19271e-015 7.95139e-016 -3.18055e-015 0.4882 -2.341 -0.6462 0.0145917 0.00367972 -0.00326315 0.3574 -1.7166 -0.4742 3.97569e-016 -1.59028e-015 -3.18055e-015 1.4199 -1.8761 1.4221 1.19271e-015 7.95139e-016 -3.18055e-015 1.1472 -3.4929 2.6336 1.59028e-015 9.25232e-007 -3.18055e-015 0.8229 -2.3 1.6571 -4.54192e-007 -9.91639e-007 4.57394e-006 -9.412 3.9771 -0.7758 -42.3908 -48.3426 -72.7227 -0.7531 -40.938 0 -121.906 41.2846 138.984 -7.10543e-015 -40.1986 3.55271e-015 -17.8135 -5.03048 -33.5142 7.10543e-015 -4.4182 9.239 -5.46989e-006 5.39466e-006 5.01882e-006 9.4119 3.9773 -0.7758 59.1 -50.6461 86.4237 0.7532 -40.9383 -3.55271e-015 132.059 40.497 -126.805 0 -40.1986 -3.55271e-015 23.3796 -12.2611 11.2634 -3.55271e-015 -4.4182 9.239 1.34437e-006 1.60215e-005 -7.50768e-006 
